<svg id="Layer_1" xmlns="http://www.w3.org/2000/svg" viewBox="0 0 106.7 225"><style>.st0{fill:#c1b473}.st1{fill:#4c271d}.st2{fill:#602b1a}.st3{fill:none}</style><path class="st0" d="M97.6 175.7H70.3l1.8-7.3-5.7-33.3-3-3h-19l-3 3-5.5 33.3 1.6 7.3H10.4l5-14.9L41.1 11.2l-2.3-9.9h29.8l-2.3 9.9 25.9 149.4 5.4 15.1zm-49.8-65.6h11.7l2.3-1.8-8-46.6-8 46.6 2 1.8z"/><path class="st1" d="M23.1 101.1l-.3 5-2.2-.2-.3-2.9z"/><path class="st1" d="M10 102.9c1.6.9 2.6.3 2.9.1.1 0 .1-.1.1-.2.2-2.2-.6-5.4-1.2-7.4-.1-.3.1-.6.3-.4 2.5 3.2 7.7 4.1 8.7 4.2h.1c.3.1 1.2.7 1.3.9.1.3.4 2.5-1.2 2.8h-.3l-.6 8.5c0 .2-.1.3-.2.3-6.7-3.2-9.2-6.7-10-8.2-.2-.3 0-.7.1-.6zm74.8-1.8l.3 5 2.1-.2.3-2.9z"/><path class="st1" d="M97.8 102.9c-1.6.9-2.6.3-2.9.1-.1 0-.1-.1-.1-.2-.2-2.2.6-5.4 1.2-7.4.1-.3-.1-.6-.3-.4-2.5 3.2-7.7 4.1-8.7 4.2h-.1c-.3.1-1.2.7-1.3.9-.1.3-.4 2.5 1.2 2.8h.3l.6 8.5c0 .2.1.3.2.3 6.7-3.2 9.2-6.7 10-8.2.2-.3.1-.7-.1-.6z"/><path class="st2" d="M20.5 99.1s3.5 2.2-1.5 4.2h.1c1.6.3 7.1-1.9 1.4-4.2zm66.9 0s-3.5 2.2 1.5 4.2h-.1c-1.7.3-7.2-1.9-1.4-4.2z"/><path class="st2" d="M15.9 115.1c.4-1 .8-2.1 1-3.1.5-2.9-.3-6.6 1.3-8.5 1.3-1.5 3.3-1 4.7-.1 21.2 13.6 41.2 12.7 62.1.2 1.6-1 3.8-1.5 5 .4.8 1.3.7 3.3.8 5.1 0 1.5.2 3 .6 4.4l.6 2.1c.2.6.5 1.1.7 1.7.1.5.1.9.1 1.4 0 .7-.2 1.3-.4 1.9-.2.4-.4.7-.7 1-.8.9-1.9 1-2.9 1.4-22.7 8.6-45.3 11.5-69.7-.2-1.4-.7-3.3-1-3.8-3.1-.4-1.5.1-3 .6-4.6z"/><path class="st0" d="M104.1 107.2s-1.1 2-2 2.5c-.7.3-2.4-.6-.9-2 .6-.5 2.9-.5 2.9-.5zm-3.3-.2s-1 2.8-2.1 3.6c-.8.6-3.5 0-1.8-2.1.7-1 3.9-1.5 3.9-1.5zm-4.6.9s-.7 2.8-1.8 3.7c-.8.6-3.6.3-2-1.9.6-1 3.8-1.8 3.8-1.8zm-4.3 1.1s-.8 2.8-1.8 3.7c-.8.6-3.6.3-2-1.9.5-1 3.8-1.8 3.8-1.8zm-4.4.9s-.8 2.8-1.9 3.6c-.8.6-3.6.3-2-2 .7-.8 3.9-1.6 3.9-1.6zM83 111s-.6 2.8-1.7 3.7c-.8.7-3.6.5-2.1-1.8.6-.9 3.8-1.9 3.8-1.9zm-4.4 1.2s-.7 2.8-1.7 3.7c-.8.7-3.6.4-2.1-1.8.6-1 3.8-1.9 3.8-1.9zm-4.4 1.1s-.7 2.8-1.8 3.7c-.8.6-3.6.4-2.1-1.9.7-.9 3.9-1.8 3.9-1.8zm-4.6 1.4s-.8 2.6-1.9 3.4c-.8.6-3.3.1-1.7-1.9.6-.9 3.6-1.5 3.6-1.5zm-4.8 2.1s.2.9 0 1.4c-.2.3-1.4.8-1.2-.1.1-.4 1.2-1.3 1.2-1.3z"/><path class="st0" d="M66.8 120.3s-.4-1.6-1.1-1.9c-.5-.2-2.4 1-1.5 2 .5.4 2.6-.1 2.6-.1zm39.2-10.6s-1.3-1.3-2.3-1.1c-.7.1-2.4 2.2-.7 2.6.7.2 3-1.5 3-1.5z"/><path class="st0" d="M102.8 112.4s-.7-2.4-1.8-2.6c-.8-.2-3.6 1.7-2 3.1.5.4 3.8-.5 3.8-.5zm-4.6 1.3s-.5-2.5-1.5-2.9c-.7-.3-3.6 1.4-2.3 2.9.6.7 3.8 0 3.8 0zm-4.4 1s-.5-2.5-1.5-2.8c-.7-.3-3.6 1.5-2.3 3 .6.5 3.8-.2 3.8-.2zm-4.3 1.2s-.5-2.5-1.5-2.8c-.7-.3-3.6 1.5-2.2 3 .5.5 3.7-.2 3.7-.2zm-4.6 1s-.4-2.5-1.3-3c-.7-.3-3.7 1.3-2.4 2.9.5.7 3.7.1 3.7.1zm-4.3 1.1s-.4-2.5-1.4-2.9c-.7-.3-3.7 1.4-2.3 2.9.5.6 3.7 0 3.7 0zm-4.4 1s-.5-2.5-1.5-2.9c-.7-.3-3.6 1.4-2.3 2.9.6.6 3.8 0 3.8 0zm-4.6.6s-.7-2.1-1.6-2.4c-.7-.2-3.2 1.6-1.8 2.8.5.5 3.4-.4 3.4-.4z"/><path transform="rotate(-12.849 47.92 122.738)" class="st0" d="M31.1 122.4h33.7v.6H31.1z"/><path class="st0" d="M2.9 106.4s1.1 2 2 2.5c.7.3 2.4-.6.9-2-.6-.5-2.9-.5-2.9-.5zm3.3-.2s1 2.8 2.1 3.6c.8.6 3.5 0 1.8-2.1-.7-1-3.9-1.5-3.9-1.5zm4.5.9s.7 2.8 1.8 3.7c.8.6 3.6.3 2-1.9-.5-1-3.8-1.8-3.8-1.8zm4.4 1.1s.8 2.8 1.8 3.7c.8.6 3.6.3 2-1.9-.5-1-3.8-1.8-3.8-1.8zm4.4.9s.8 2.8 1.9 3.6c.8.6 3.6.3 2-2-.7-.8-3.9-1.6-3.9-1.6zm4.5 1.1s.6 2.8 1.7 3.7c.8.7 3.6.5 2.1-1.8-.6-.9-3.8-1.9-3.8-1.9zm4.4 1.2s.7 2.8 1.7 3.7c.8.7 3.6.4 2.1-1.8-.6-1-3.8-1.9-3.8-1.9zm4.4 1.1s.7 2.8 1.8 3.7c.8.6 3.6.4 2.1-1.9-.7-.9-3.9-1.8-3.9-1.8zm4.6 1.4s.8 2.6 1.9 3.4c.8.6 3.3.1 1.7-1.9-.6-.9-3.6-1.5-3.6-1.5zm4.8 2.1s-.2.9 0 1.4c.2.3 1.4.8 1.2-.1-.1-.4-1.2-1.3-1.2-1.3z"/><path class="st0" d="M40.2 119.5s.4-1.6 1.1-1.9c.5-.2 2.4 1 1.5 2-.5.4-2.6-.1-2.6-.1zM1 108.9s1.3-1.3 2.3-1.1c.7.1 2.4 2.2.7 2.6-.7.1-3-1.5-3-1.5z"/><path class="st0" d="M4.2 111.6s.7-2.4 1.8-2.6c.8-.2 3.6 1.7 2 3.1-.5.4-3.8-.5-3.8-.5zm4.6 1.2s.5-2.5 1.5-2.9c.7-.3 3.6 1.4 2.3 2.9-.6.7-3.8 0-3.8 0zm4.4 1.1s.5-2.5 1.5-2.8c.7-.3 3.6 1.5 2.3 3-.6.5-3.8-.2-3.8-.2zm4.3 1.1s.5-2.5 1.5-2.8c.7-.3 3.6 1.5 2.2 3-.5.6-3.7-.2-3.7-.2zm4.6 1.1s.4-2.5 1.3-3c.7-.3 3.7 1.3 2.4 2.9-.5.7-3.7.1-3.7.1zm4.3 1s.4-2.5 1.4-2.9c.7-.3 3.7 1.4 2.3 2.9-.5.7-3.7 0-3.7 0zm4.4 1.1s.5-2.5 1.5-2.9c.7-.3 3.6 1.4 2.3 2.9-.6.6-3.8 0-3.8 0zm4.6.6s.7-2.1 1.6-2.4c.7-.2 3.2 1.6 1.8 2.8-.5.5-3.4-.4-3.4-.4z"/><path transform="rotate(-167.151 59.075 121.913)" class="st0" d="M42.2 121.6h33.7v.6H42.2z"/><path class="st3" d="M99.2 125.7s-.1-.8-3.9-2.1l-.2 3.6c3.9-.7 4.1-1.5 4.1-1.5zm-90.5 0s.1-.8 3.9-2.1l.2 3.6c-3.9-.7-4.1-1.5-4.1-1.5z"/><path class="st0" d="M5 212.4h3.5l.7.7v4l-.7.7.7.7v4l-.7.7H5l.2-.7V213l-.2-.6zm1.5 4.5l.2.2h1l.2-.2v-3.1l-.2-.2h-1l-.2.2v3.1zm1.2 1.5h-1l-.2.2v3l.2.2h1l.2-.2v-3l-.2-.2zm4 4.7l.2-.7V213l-.2-.7h3.5l.7.7v4.7l-.7.7.6 4 .2.7h-1.7l.1-.6-.6-3.9-.1-.1h-.4l-.2.2v3.9l.2.7h-1.6zm2.7-6l.2-.2v-3l-.2-.2h-1l-.2.2v3l.2.2h1zm3.9 6l.2-.7V213l-.2-.7h4l.2 1.5-.7-.2h-1.9l-.2.2v3.1l.2.2h.5l.7-.2v1.7l-.7-.2h-.5l-.2.2v3l.2.2h1.9l.7-.2-.2 1.5h-4zm12.8-.7l.1.7h-1.8l.1-.7-.9-5.7-.9 5.7.1.7H26l.1-.7-1.4-9.1-.3-.9H26l-.1.5 1 6.6 1-6.6-.1-.5h1.7l-.1.5 1 6.6 1-6.6-.1-.5H33l-.3.9-1.6 9.1zm5.4.7h-1.7l.2-.7V213l-.2-.7h1.7l-.2.7v9.4l.2.7zm4 0h-1.7l.2-.7V213l-.2-.7h1.5l1.7 6.3V213l-.2-.7h1.7l-.2.7v9.4l.2.7H42l-1.7-6.3v5.7l.2.6zm5.4-.6v-9.4l.7-.7h2.7l.7.7v1.4l.2.7h-1.7l.2-.7v-.5l-.2-.2h-1l-.2.2v7.7l.2.2h1l.2-.2v-2.5h-.4l-.3-1.4h2.2l-.2.7v4l-.7.7h-2.7l-.7-.7zm11.3 0v-9.4l.7-.7h2.7l.7.7v1.4l.2.7h-1.7l.2-.7v-.5l-.2-.2h-1l-.2.2v7.7l.2.2h1l.2-.2v-.5l-.2-.7h1.7l-.2.7v1.4l-.7.7h-2.7l-.7-.8zm10.6-9.4v9.4l-.7.7h-2.7l-.7-.7v-9.4l.7-.7h2.7l.7.7zm-1.5.7h-1l-.2.2v7.7l.2.2h1l.2-.2V214l-.2-.2zm7.5 5.8h-.7l-1.4-3.7v6.5l.2.7h-1.7l.2-.7V213l-.2-.7h1.5l1.7 4.4 1.7-4.4h1.5l-.2.7v9.4l.2.7H75l.2-.7V216l-1.4 3.6zm6.9 3.5H79l.2-.7V213l-.2-.7h3.5l.7.7v4.7l-.7.7h-1.9l-.2.2v3.9l.3.6zm0-6h1l.2-.2v-3l-.2-.2h-1l-.2.2v3l.2.2zm9.6 6h-1.7l.1-.5-.4-2.1-.2-.2H87l-.2.2-.3 2.1.1.5h-1.7l.3-.9 1.6-9.2-.1-.6h1.8l-.1.6 1.6 9.2.3.9zm-3.1-4h.8l.1-.1-.5-2.9-.5 2.9.1.1zm6.8 4h-1.7l.2-.7V213l-.2-.7h1.5l1.7 6.3V213l-.2-.7H97l-.2.7v9.4l.2.7h-1.5l-1.7-6.3v5.7l.2.6zm8.4-.6l.2.7h-1.7l.2-.7v-4l-1.7-5.6-.3-.5h2l-.2.5.9 3.4.9-3.4-.2-.5h2l-.5.6-1.7 5.6v3.9zm-79.7-12.7h-5.5l.4-1.3-1.2-6-.6-.5H12l-.6.5-1.1 6 .3 1.3H5.2l1-2.7 5-26.9-.5-1.8h6l-.5 1.8 5.4 26.8 1.1 2.8zm-10-11.7H15l.5-.3-1.7-8.3-1.6 8.4.5.2zm25 11.6l-13.1.1.5-1.9-.1-27.5-.6-1.9h5.4l-.5 1.9.1 25 .5.4h6.2l2.3-.5-.7 4.4zm16.1-29.4l.2 27.4-2.2 1.9h-8.7l-2.2-1.9-.2-27.4 2.2-1.9h8.7l2.2 1.9zm-4.9 2h-3.3l-.5.5.1 22.5.5.4H49l.5-.5-.1-22.5-.5-.4zm22.3 3.8h-5.5l.5-1.9v-1.5l-.5-.5h-3.4l-.5.5.1 8.8.5.4h6.1l2.2 1.9.1 13.7-2.2 1.9h-8.7l-2.3-1.9v-4l-.5-1.9h5.5l-.5 1.9v1.5l.5.4H66l.5-.5-.1-8.8-.5-.4h-6l-2.3-2-.1-13.7 2.2-1.9h8.7l2.2 1.9v4l.6 2.1zm17.5-3.6l-2.3-.4h-2.8l-.5.5.1 25 .6 1.9h-5.5l.5-1.9-.1-25-.5-.5h-2.9l-2.3.5.8-4.4 14-.1.9 4.4zm15.8 26.8H99l.4-1.3-1.2-6-.6-.5h-3.8l-.6.5-1.1 6 .3 1.3H87l1-2.7 5-26.9-.5-1.8h6l-.5 1.8 5.4 26.8 1.1 2.8zm-10-11.7h2.3l.5-.3-1.7-8.3-1.6 8.4.5.2z"/></svg>