<?xml version="1.0" encoding="utf-8"?>
<!-- Generator: Adobe Illustrator 20.0.0, SVG Export Plug-In . SVG Version: 6.00 Build 0)  -->
<svg version="1.1" id="Layer_1" xmlns="http://www.w3.org/2000/svg" xmlns:xlink="http://www.w3.org/1999/xlink" x="0px" y="0px"
	 viewBox="0 0 106.7 225" style="enable-background:new 0 0 106.7 225;" xml:space="preserve">
<style type="text/css">
	.st0{fill:#C1B473;}
	.st1{fill:#4C271D;}
	.st2{fill:#602B1A;}
	.st3{fill:none;}
</style>
<g>
	<path class="st0" d="M97.6,175.7H70.3l1.8-7.3l-5.7-33.3l-3-3h-19l-3,3l-5.5,33.3l1.6,7.3H10.4l5-14.9L41.1,11.2l-2.3-9.9h29.8
		l-2.3,9.9l25.9,149.4L97.6,175.7z M47.8,110.1h11.7l2.3-1.8l-8-46.6l-8,46.6L47.8,110.1z"/>
</g>
<polygon class="st1" points="23.1,101.1 22.8,106.1 20.6,105.9 20.3,103 "/>
<path class="st1" d="M10,102.9c1.6,0.9,2.6,0.3,2.9,0.1c0.1,0,0.1-0.1,0.1-0.2c0.2-2.2-0.6-5.4-1.2-7.4c-0.1-0.3,0.1-0.6,0.3-0.4
	c2.5,3.2,7.7,4.1,8.7,4.2c0,0,0,0,0.1,0c0.3,0.1,1.2,0.7,1.3,0.9c0.1,0.3,0.4,2.5-1.2,2.8c-0.1,0-0.2,0-0.3,0l-0.6,8.5
	c0,0.2-0.1,0.3-0.2,0.3c-6.7-3.2-9.2-6.7-10-8.2C9.7,103.2,9.9,102.8,10,102.9z"/>
<polygon class="st1" points="84.8,101.1 85.1,106.1 87.2,105.9 87.5,103 "/>
<path class="st1" d="M97.8,102.9c-1.6,0.9-2.6,0.3-2.9,0.1c-0.1,0-0.1-0.1-0.1-0.2c-0.2-2.2,0.6-5.4,1.2-7.4
	c0.1-0.3-0.1-0.6-0.3-0.4c-2.5,3.2-7.7,4.1-8.7,4.2c0,0,0,0-0.1,0c-0.3,0.1-1.2,0.7-1.3,0.9c-0.1,0.3-0.4,2.5,1.2,2.8
	c0.1,0,0.2,0,0.3,0l0.6,8.5c0,0.2,0.1,0.3,0.2,0.3c6.7-3.2,9.2-6.7,10-8.2C98.1,103.2,98,102.8,97.8,102.9z"/>
<path class="st2" d="M20.5,99.1c0,0,3.5,2.2-1.5,4.2c0,0,0.1,0,0.1,0C20.7,103.6,26.2,101.4,20.5,99.1z"/>
<path class="st2" d="M87.4,99.1c0,0-3.5,2.2,1.5,4.2c0,0-0.1,0-0.1,0C87.1,103.6,81.6,101.4,87.4,99.1z"/>
<path class="st2" d="M15.9,115.1c0.4-1,0.8-2.1,1-3.1c0.5-2.9-0.3-6.6,1.3-8.5c1.3-1.5,3.3-1,4.7-0.1c21.2,13.6,41.2,12.7,62.1,0.2
	c1.6-1,3.8-1.5,5,0.4c0.8,1.3,0.7,3.3,0.8,5.1c0,1.5,0.2,3,0.6,4.4c0.2,0.7,0.4,1.4,0.6,2.1c0.2,0.6,0.5,1.1,0.7,1.7
	c0.1,0.5,0.1,0.9,0.1,1.4c0,0.7-0.2,1.3-0.4,1.9c-0.2,0.4-0.4,0.7-0.7,1c-0.8,0.9-1.9,1-2.9,1.4c-22.7,8.6-45.3,11.5-69.7-0.2
	c-1.4-0.7-3.3-1-3.8-3.1C14.9,118.2,15.4,116.7,15.9,115.1z"/>
<g>
	<g>
		<path class="st0" d="M104.1,107.2c0,0-1.1,2-2,2.5c-0.7,0.3-2.4-0.6-0.9-2C101.8,107.2,104.1,107.2,104.1,107.2z"/>
		<path class="st0" d="M100.8,107c0,0-1,2.8-2.1,3.6c-0.8,0.6-3.5,0-1.8-2.1C97.6,107.5,100.8,107,100.8,107z"/>
		<path class="st0" d="M96.2,107.9c0,0-0.7,2.8-1.8,3.7c-0.8,0.6-3.6,0.3-2-1.9C93,108.7,96.2,107.9,96.2,107.9z"/>
		<path class="st0" d="M91.9,109c0,0-0.8,2.8-1.8,3.7c-0.8,0.6-3.6,0.3-2-1.9C88.6,109.8,91.9,109,91.9,109z"/>
		<path class="st0" d="M87.5,109.9c0,0-0.8,2.8-1.9,3.6c-0.8,0.6-3.6,0.3-2-2C84.3,110.7,87.5,109.9,87.5,109.9z"/>
		<path class="st0" d="M83,111c0,0-0.6,2.8-1.7,3.7c-0.8,0.7-3.6,0.5-2.1-1.8C79.8,112,83,111,83,111z"/>
		<path class="st0" d="M78.6,112.2c0,0-0.7,2.8-1.7,3.7c-0.8,0.7-3.6,0.4-2.1-1.8C75.4,113.1,78.6,112.2,78.6,112.2z"/>
		<path class="st0" d="M74.2,113.3c0,0-0.7,2.8-1.8,3.7c-0.8,0.6-3.6,0.4-2.1-1.9C71,114.2,74.2,113.3,74.2,113.3z"/>
		<path class="st0" d="M69.6,114.7c0,0-0.8,2.6-1.9,3.4c-0.8,0.6-3.3,0.1-1.7-1.9C66.6,115.3,69.6,114.7,69.6,114.7z"/>
		<path class="st0" d="M64.8,116.8c0,0,0.2,0.9,0,1.4c-0.2,0.3-1.4,0.8-1.2-0.1C63.7,117.7,64.8,116.8,64.8,116.8z"/>
		<path class="st0" d="M66.8,120.3c0,0-0.4-1.6-1.1-1.9c-0.5-0.2-2.4,1-1.5,2C64.7,120.8,66.8,120.3,66.8,120.3z"/>
		<path class="st0" d="M106,109.7c0,0-1.3-1.3-2.3-1.1c-0.7,0.1-2.4,2.2-0.7,2.6C103.7,111.4,106,109.7,106,109.7z"/>
		<path class="st0" d="M102.8,112.4c0,0-0.7-2.4-1.8-2.6c-0.8-0.2-3.6,1.7-2,3.1C99.5,113.3,102.8,112.4,102.8,112.4z"/>
		<path class="st0" d="M98.2,113.7c0,0-0.5-2.5-1.5-2.9c-0.7-0.3-3.6,1.4-2.3,2.9C95,114.4,98.2,113.7,98.2,113.7z"/>
		<path class="st0" d="M93.8,114.7c0,0-0.5-2.5-1.5-2.8c-0.7-0.3-3.6,1.5-2.3,3C90.6,115.4,93.8,114.7,93.8,114.7z"/>
		<path class="st0" d="M89.5,115.9c0,0-0.5-2.5-1.5-2.8c-0.7-0.3-3.6,1.5-2.2,3C86.3,116.6,89.5,115.9,89.5,115.9z"/>
		<path class="st0" d="M84.9,116.9c0,0-0.4-2.5-1.3-3c-0.7-0.3-3.7,1.3-2.4,2.9C81.7,117.5,84.9,116.9,84.9,116.9z"/>
		<path class="st0" d="M80.6,118c0,0-0.4-2.5-1.4-2.9c-0.7-0.3-3.7,1.4-2.3,2.9C77.4,118.6,80.6,118,80.6,118z"/>
		<path class="st0" d="M76.2,119c0,0-0.5-2.5-1.5-2.9c-0.7-0.3-3.6,1.4-2.3,2.9C73,119.6,76.2,119,76.2,119z"/>
		<path class="st0" d="M71.6,119.6c0,0-0.7-2.1-1.6-2.4c-0.7-0.2-3.2,1.6-1.8,2.8C68.7,120.5,71.6,119.6,71.6,119.6z"/>
	</g>
	
		<rect x="31.1" y="122.4" transform="matrix(0.975 -0.2224 0.2224 0.975 -26.0969 13.7312)" class="st0" width="33.7" height="0.6"/>
</g>
<g>
	<g>
		<path class="st0" d="M2.9,106.4c0,0,1.1,2,2,2.5c0.7,0.3,2.4-0.6,0.9-2C5.2,106.4,2.9,106.4,2.9,106.4z"/>
		<path class="st0" d="M6.2,106.2c0,0,1,2.8,2.1,3.6c0.8,0.6,3.5,0,1.8-2.1C9.4,106.7,6.2,106.2,6.2,106.2z"/>
		<path class="st0" d="M10.7,107.1c0,0,0.7,2.8,1.8,3.7c0.8,0.6,3.6,0.3,2-1.9C14,107.9,10.7,107.1,10.7,107.1z"/>
		<path class="st0" d="M15.1,108.2c0,0,0.8,2.8,1.8,3.7c0.8,0.6,3.6,0.3,2-1.9C18.4,109,15.1,108.2,15.1,108.2z"/>
		<path class="st0" d="M19.5,109.1c0,0,0.8,2.8,1.9,3.6c0.8,0.6,3.6,0.3,2-2C22.7,109.9,19.5,109.1,19.5,109.1z"/>
		<path class="st0" d="M24,110.2c0,0,0.6,2.8,1.7,3.7c0.8,0.7,3.6,0.5,2.1-1.8C27.2,111.2,24,110.2,24,110.2z"/>
		<path class="st0" d="M28.4,111.4c0,0,0.7,2.8,1.7,3.7c0.8,0.7,3.6,0.4,2.1-1.8C31.6,112.3,28.4,111.4,28.4,111.4z"/>
		<path class="st0" d="M32.8,112.5c0,0,0.7,2.8,1.8,3.7c0.8,0.6,3.6,0.4,2.1-1.9C36,113.4,32.8,112.5,32.8,112.5z"/>
		<path class="st0" d="M37.4,113.9c0,0,0.8,2.6,1.9,3.4c0.8,0.6,3.3,0.1,1.7-1.9C40.4,114.5,37.4,113.9,37.4,113.9z"/>
		<path class="st0" d="M42.2,116c0,0-0.2,0.9,0,1.4c0.2,0.3,1.4,0.8,1.2-0.1C43.3,116.9,42.2,116,42.2,116z"/>
		<path class="st0" d="M40.2,119.5c0,0,0.4-1.6,1.1-1.9c0.5-0.2,2.4,1,1.5,2C42.3,120,40.2,119.5,40.2,119.5z"/>
		<path class="st0" d="M1,108.9c0,0,1.3-1.3,2.3-1.1c0.7,0.1,2.4,2.2,0.7,2.6C3.3,110.5,1,108.9,1,108.9z"/>
		<path class="st0" d="M4.2,111.6c0,0,0.7-2.4,1.8-2.6c0.8-0.2,3.6,1.7,2,3.1C7.5,112.5,4.2,111.6,4.2,111.6z"/>
		<path class="st0" d="M8.8,112.8c0,0,0.5-2.5,1.5-2.9c0.7-0.3,3.6,1.4,2.3,2.9C12,113.5,8.8,112.8,8.8,112.8z"/>
		<path class="st0" d="M13.2,113.9c0,0,0.5-2.5,1.5-2.8c0.7-0.3,3.6,1.5,2.3,3C16.4,114.6,13.2,113.9,13.2,113.9z"/>
		<path class="st0" d="M17.5,115c0,0,0.5-2.5,1.5-2.8c0.7-0.3,3.6,1.5,2.2,3C20.7,115.8,17.5,115,17.5,115z"/>
		<path class="st0" d="M22.1,116.1c0,0,0.4-2.5,1.3-3c0.7-0.3,3.7,1.3,2.4,2.9C25.3,116.7,22.1,116.1,22.1,116.1z"/>
		<path class="st0" d="M26.4,117.1c0,0,0.4-2.5,1.4-2.9c0.7-0.3,3.7,1.4,2.3,2.9C29.6,117.8,26.4,117.1,26.4,117.1z"/>
		<path class="st0" d="M30.8,118.2c0,0,0.5-2.5,1.5-2.9c0.7-0.3,3.6,1.4,2.3,2.9C34,118.8,30.8,118.2,30.8,118.2z"/>
		<path class="st0" d="M35.4,118.8c0,0,0.7-2.1,1.6-2.4c0.7-0.2,3.2,1.6,1.8,2.8C38.3,119.7,35.4,118.8,35.4,118.8z"/>
	</g>
	
		<rect x="42.2" y="121.6" transform="matrix(-0.975 -0.2224 0.2224 -0.975 89.5658 253.9306)" class="st0" width="33.7" height="0.6"/>
</g>
<path class="st3" d="M99.2,125.7c0,0-0.1-0.8-3.9-2.1l-0.2,3.6C99,126.5,99.2,125.7,99.2,125.7z"/>
<path class="st3" d="M8.7,125.7c0,0,0.1-0.8,3.9-2.1l0.2,3.6C8.9,126.5,8.7,125.7,8.7,125.7z"/>
<g>
	<path class="st0" d="M5,212.4h3.5l0.7,0.7v4l-0.7,0.7l0.7,0.7v4l-0.7,0.7H5l0.2-0.7V213L5,212.4z M6.5,216.9l0.2,0.2h1l0.2-0.2
		v-3.1l-0.2-0.2h-1l-0.2,0.2V216.9z M7.7,218.4h-1l-0.2,0.2v3l0.2,0.2h1l0.2-0.2v-3L7.7,218.4z"/>
	<path class="st0" d="M11.7,223.1l0.2-0.7v-9.4l-0.2-0.7h3.5l0.7,0.7v4.7l-0.7,0.7l0.6,4l0.2,0.7h-1.7l0.1-0.6l-0.6-3.9l-0.1-0.1
		h-0.4l-0.2,0.2v3.9l0.2,0.7H11.7z M14.4,217.1l0.2-0.2v-3l-0.2-0.2h-1l-0.2,0.2v3l0.2,0.2H14.4z"/>
	<path class="st0" d="M18.3,223.1l0.2-0.7V213l-0.2-0.7h4l0.2,1.5l-0.7-0.2h-1.9l-0.2,0.2v3.1l0.2,0.2h0.5l0.7-0.2v1.7l-0.7-0.2
		h-0.5l-0.2,0.2v3l0.2,0.2h1.9l0.7-0.2l-0.2,1.5H18.3z"/>
	<path class="st0" d="M31.1,222.4l0.1,0.7h-1.8l0.1-0.7l-0.9-5.7l-0.9,5.7l0.1,0.7H26l0.1-0.7l-1.4-9.1l-0.3-0.9H26l-0.1,0.5l1,6.6
		l1-6.6l-0.1-0.5h1.7l-0.1,0.5l1,6.6l1-6.6l-0.1-0.5h1.7l-0.3,0.9L31.1,222.4z"/>
	<path class="st0" d="M36.5,223.1h-1.7l0.2-0.7v-9.4l-0.2-0.7h1.7l-0.2,0.7v9.4L36.5,223.1z"/>
	<path class="st0" d="M40.5,223.1h-1.7l0.2-0.7v-9.4l-0.2-0.7h1.5l1.7,6.3v-5.6l-0.2-0.7h1.7l-0.2,0.7v9.4l0.2,0.7H42l-1.7-6.3v5.7
		L40.5,223.1z"/>
	<path class="st0" d="M45.9,222.5v-9.4l0.7-0.7h2.7l0.7,0.7v1.4l0.2,0.7h-1.7l0.2-0.7v-0.5l-0.2-0.2h-1l-0.2,0.2v7.7l0.2,0.2h1
		l0.2-0.2v-2.5h-0.4l-0.3-1.4h2.2l-0.2,0.7v4l-0.7,0.7h-2.7L45.9,222.5z"/>
	<path class="st0" d="M57.2,222.5v-9.4l0.7-0.7h2.7l0.7,0.7v1.4l0.2,0.7h-1.7l0.2-0.7v-0.5l-0.2-0.2h-1l-0.2,0.2v7.7l0.2,0.2h1
		l0.2-0.2v-0.5l-0.2-0.7h1.7l-0.2,0.7v1.4l-0.7,0.7h-2.7L57.2,222.5z"/>
	<path class="st0" d="M67.8,213.1v9.4l-0.7,0.7h-2.7l-0.7-0.7v-9.4l0.7-0.7h2.7L67.8,213.1z M66.3,213.8h-1l-0.2,0.2v7.7l0.2,0.2h1
		l0.2-0.2v-7.7L66.3,213.8z"/>
	<path class="st0" d="M73.8,219.6h-0.7l-1.4-3.7v6.5l0.2,0.7h-1.7l0.2-0.7v-9.4l-0.2-0.7h1.5l1.7,4.4l1.7-4.4h1.5l-0.2,0.7v9.4
		l0.2,0.7H75l0.2-0.7V216L73.8,219.6z"/>
	<path class="st0" d="M80.7,223.1H79l0.2-0.7v-9.4l-0.2-0.7h3.5l0.7,0.7v4.7l-0.7,0.7h-1.9l-0.2,0.2v3.9L80.7,223.1z M80.7,217.1h1
		l0.2-0.2v-3l-0.2-0.2h-1l-0.2,0.2v3L80.7,217.1z"/>
	<path class="st0" d="M90.3,223.1h-1.7l0.1-0.5l-0.4-2.1l-0.2-0.2H87l-0.2,0.2l-0.3,2.1l0.1,0.5h-1.7l0.3-0.9l1.6-9.2l-0.1-0.6h1.8
		l-0.1,0.6l1.6,9.2L90.3,223.1z M87.2,219.1H88l0.1-0.1l-0.5-2.9l-0.5,2.9L87.2,219.1z"/>
	<path class="st0" d="M94,223.1h-1.7l0.2-0.7v-9.4l-0.2-0.7h1.5l1.7,6.3v-5.6l-0.2-0.7H97l-0.2,0.7v9.4l0.2,0.7h-1.5l-1.7-6.3v5.7
		L94,223.1z"/>
	<path class="st0" d="M102.4,222.5l0.2,0.7h-1.7l0.2-0.7v-4l-1.7-5.6l-0.3-0.5h2l-0.2,0.5l0.9,3.4l0.9-3.4l-0.2-0.5h2L104,213
		l-1.7,5.6V222.5z"/>
</g>
<g>
	<path class="st0" d="M22.7,209.8l-5.5,0l0.4-1.3l-1.2-6l-0.6-0.5l-3.8,0l-0.6,0.5l-1.1,6l0.3,1.3l-5.4,0l1-2.7l5-26.9l-0.5-1.8l6,0
		l-0.5,1.8l5.4,26.8L22.7,209.8z M12.7,198.1l2.3,0l0.5-0.3l-1.7-8.3l-1.6,8.4L12.7,198.1z"/>
	<path class="st0" d="M37.7,209.7l-13.1,0.1l0.5-1.9L25,180.4l-0.6-1.9l5.4,0l-0.5,1.9l0.1,25l0.5,0.4l6.2,0l2.3-0.5L37.7,209.7z"/>
	<path class="st0" d="M53.8,180.3l0.2,27.4l-2.2,1.9l-8.7,0l-2.2-1.9l-0.2-27.4l2.2-1.9l8.7,0L53.8,180.3z M48.9,182.3l-3.3,0
		l-0.5,0.5l0.1,22.5l0.5,0.4l3.3,0l0.5-0.5l-0.1-22.5L48.9,182.3z"/>
	<path class="st0" d="M71.2,186.1l-5.5,0l0.5-1.9l0-1.5l-0.5-0.5l-3.4,0l-0.5,0.5l0.1,8.8l0.5,0.4l6.1,0l2.2,1.9l0.1,13.7l-2.2,1.9
		l-8.7,0l-2.3-1.9l0-4l-0.5-1.9l5.5,0l-0.5,1.9l0,1.5l0.5,0.4l3.4,0l0.5-0.5l-0.1-8.8l-0.5-0.4l-6,0l-2.3-2l-0.1-13.7l2.2-1.9l8.7,0
		l2.2,1.9l0,4L71.2,186.1z"/>
	<path class="st0" d="M88.7,182.5l-2.3-0.4l-2.8,0l-0.5,0.5l0.1,25l0.6,1.9l-5.5,0l0.5-1.9l-0.1-25l-0.5-0.5l-2.9,0l-2.3,0.5
		l0.8-4.4l14-0.1L88.7,182.5z"/>
	<path class="st0" d="M104.5,209.3l-5.5,0l0.4-1.3l-1.2-6l-0.6-0.5l-3.8,0l-0.6,0.5l-1.1,6l0.3,1.3l-5.4,0l1-2.7l5-26.9l-0.5-1.8
		l6,0l-0.5,1.8l5.4,26.8L104.5,209.3z M94.5,197.6l2.3,0l0.5-0.3l-1.7-8.3l-1.6,8.4L94.5,197.6z"/>
</g>
</svg>
